<?xml version="1.0" standalone="no"?>
<!DOCTYPE svg PUBLIC "-//W3C//DTD SVG 20010904//EN"
 "http://www.w3.org/TR/2001/REC-SVG-20010904/DTD/svg10.dtd">
<svg version="1.0" xmlns="http://www.w3.org/2000/svg"
 width="588.000000pt" height="588.000000pt" viewBox="0 0 588.000000 588.000000"
 preserveAspectRatio="xMidYMid meet">
<metadata>
Created by potrace 1.11, written by Peter Selinger 2001-2013
</metadata>
<g transform="translate(0.000000,588.000000) scale(0.100000,-0.100000)"
fill="#000000" stroke="none">
<path d="M1560 5788 c-164 -29 -289 -174 -291 -337 -2 -117 13 -145 250 -486
49 -71 119 -173 155 -225 36 -52 92 -135 125 -183 34 -49 61 -90 61 -92 0 -1
-26 -22 -57 -46 -140 -105 -324 -315 -427 -486 -47 -78 -107 -208 -136 -295
l-23 -68 -116 -1 c-137 -1 -144 -2 -196 -19 -123 -40 -216 -155 -233 -287 -4
-32 -7 -285 -7 -564 l1 -505 -121 0 c-154 1 -212 -7 -277 -36 -239 -110 -269
-443 -55 -601 74 -55 133 -69 305 -70 l147 -2 1 -520 c1 -555 1 -555 52 -645
50 -87 147 -153 248 -168 63 -9 3777 -8 3826 2 107 20 200 92 250 194 l33 67
2 440 c1 242 3 484 3 537 l0 97 165 0 c91 0 184 5 208 11 61 17 117 52 166
105 156 169 109 436 -96 547 -63 35 -124 43 -300 42 l-143 0 -1 25 c0 14 0
252 0 528 0 407 -2 512 -14 557 -22 83 -74 158 -142 205 -29 20 -135 62 -151
60 -4 -1 -56 -1 -117 0 l-110 1 -33 103 c-90 280 -271 537 -524 744 l-68 55
61 86 c33 48 90 130 125 182 36 52 95 138 131 190 197 282 250 367 263 419 25
103 14 181 -38 270 -110 194 -383 231 -544 75 -20 -19 -93 -117 -162 -217 -68
-100 -151 -220 -184 -267 -95 -137 -221 -320 -269 -392 l-45 -67 -47 7 c-63
10 -607 9 -652 -1 l-36 -7 -87 127 c-375 550 -538 782 -574 818 -46 46 -125
84 -188 91 -27 3 -53 6 -59 8 -5 1 -30 -1 -55 -6z m1615 -1732 c64 -8 160 -30
210 -48 50 -18 167 -79 182 -94 8 -8 18 -14 22 -14 4 0 37 -29 72 -65 64 -63
135 -169 157 -232 l11 -33 -945 0 -944 0 24 48 c72 139 210 278 346 347 79 39
202 76 298 88 99 13 467 15 567 3z m1196 -2123 c0 -505 0 -955 0 -1000 l-1
-81 -1499 0 -1499 0 0 1000 0 1000 36 -9 c61 -13 2913 -10 2937 4 11 6 21 10
23 8 2 -2 4 -417 3 -922z"/>
</g>
</svg>
